<mxfile host="app.diagrams.net" agent="Mozilla/5.0 (Windows NT 10.0; Win64; x64) AppleWebKit/537.36 (KHTML, like Gecko) Chrome/128.0.0.0 Safari/537.36" version="24.7.16">
  <diagram id="wlD_bs2P6dcA3E0WyVM6" name="Page-1">
    <mxGraphModel dx="1996" dy="1153" grid="0" gridSize="10" guides="1" tooltips="1" connect="1" arrows="1" fold="1" page="0" pageScale="1" pageWidth="827" pageHeight="1169" math="0" shadow="0">
      <root>
        <mxCell id="0" />
        <mxCell id="1" parent="0" />
        <mxCell id="xably6CQ3NCbpZJSgY0N-1" value="Contractor" style="swimlane;whiteSpace=wrap;html=1;" vertex="1" parent="1">
          <mxGeometry x="-147" y="-130" width="370" height="540" as="geometry" />
        </mxCell>
        <mxCell id="xably6CQ3NCbpZJSgY0N-2" style="edgeStyle=none;curved=1;rounded=0;orthogonalLoop=1;jettySize=auto;html=1;fontSize=12;startSize=8;endSize=8;" edge="1" parent="xably6CQ3NCbpZJSgY0N-1" source="xably6CQ3NCbpZJSgY0N-3" target="xably6CQ3NCbpZJSgY0N-7">
          <mxGeometry relative="1" as="geometry" />
        </mxCell>
        <mxCell id="xably6CQ3NCbpZJSgY0N-3" value="View Detailed Page form" style="html=1;align=center;verticalAlign=top;rounded=1;absoluteArcSize=1;arcSize=10;dashed=0;whiteSpace=wrap;" vertex="1" parent="xably6CQ3NCbpZJSgY0N-1">
          <mxGeometry x="124" y="51" width="140" height="40" as="geometry" />
        </mxCell>
        <mxCell id="xably6CQ3NCbpZJSgY0N-4" style="edgeStyle=none;curved=1;rounded=0;orthogonalLoop=1;jettySize=auto;html=1;entryX=0.5;entryY=0;entryDx=0;entryDy=0;fontSize=12;startSize=8;endSize=8;" edge="1" parent="xably6CQ3NCbpZJSgY0N-1">
          <mxGeometry relative="1" as="geometry">
            <mxPoint x="132" y="202" as="targetPoint" />
          </mxGeometry>
        </mxCell>
        <mxCell id="xably6CQ3NCbpZJSgY0N-5" style="edgeStyle=none;curved=1;rounded=0;orthogonalLoop=1;jettySize=auto;html=1;entryX=0.5;entryY=0;entryDx=0;entryDy=0;fontSize=12;startSize=8;endSize=8;" edge="1" parent="xably6CQ3NCbpZJSgY0N-1">
          <mxGeometry relative="1" as="geometry">
            <Array as="points">
              <mxPoint x="328" y="155" />
            </Array>
            <mxPoint x="148.94736842105272" y="218.94736842105272" as="sourcePoint" />
          </mxGeometry>
        </mxCell>
        <mxCell id="xably6CQ3NCbpZJSgY0N-6" value="No" style="edgeLabel;html=1;align=center;verticalAlign=middle;resizable=0;points=[];fontSize=12;" vertex="1" connectable="0" parent="xably6CQ3NCbpZJSgY0N-5">
          <mxGeometry x="-0.4746" y="24" relative="1" as="geometry">
            <mxPoint as="offset" />
          </mxGeometry>
        </mxCell>
        <mxCell id="xably6CQ3NCbpZJSgY0N-7" value="Input Number Of Hours Worked" style="html=1;align=center;verticalAlign=top;rounded=1;absoluteArcSize=1;arcSize=10;dashed=0;whiteSpace=wrap;" vertex="1" parent="xably6CQ3NCbpZJSgY0N-1">
          <mxGeometry x="124" y="172" width="140" height="40" as="geometry" />
        </mxCell>
        <mxCell id="xably6CQ3NCbpZJSgY0N-13" style="edgeStyle=none;curved=1;rounded=0;orthogonalLoop=1;jettySize=auto;html=1;entryX=0.5;entryY=0;entryDx=0;entryDy=0;fontSize=12;startSize=8;endSize=8;" edge="1" parent="xably6CQ3NCbpZJSgY0N-1" source="xably6CQ3NCbpZJSgY0N-8" target="xably6CQ3NCbpZJSgY0N-12">
          <mxGeometry relative="1" as="geometry" />
        </mxCell>
        <mxCell id="xably6CQ3NCbpZJSgY0N-14" value="If Field is left empty" style="edgeLabel;html=1;align=center;verticalAlign=middle;resizable=0;points=[];fontSize=12;" vertex="1" connectable="0" parent="xably6CQ3NCbpZJSgY0N-13">
          <mxGeometry x="-0.2235" relative="1" as="geometry">
            <mxPoint as="offset" />
          </mxGeometry>
        </mxCell>
        <mxCell id="xably6CQ3NCbpZJSgY0N-8" value="Submit Form" style="html=1;align=center;verticalAlign=top;rounded=1;absoluteArcSize=1;arcSize=10;dashed=0;whiteSpace=wrap;" vertex="1" parent="xably6CQ3NCbpZJSgY0N-1">
          <mxGeometry x="124" y="257" width="140" height="40" as="geometry" />
        </mxCell>
        <mxCell id="xably6CQ3NCbpZJSgY0N-9" style="edgeStyle=none;curved=1;rounded=0;orthogonalLoop=1;jettySize=auto;html=1;fontSize=12;startSize=8;endSize=8;exitX=0.5;exitY=1;exitDx=0;exitDy=0;" edge="1" parent="xably6CQ3NCbpZJSgY0N-1" source="xably6CQ3NCbpZJSgY0N-7" target="xably6CQ3NCbpZJSgY0N-8">
          <mxGeometry relative="1" as="geometry">
            <mxPoint x="458" y="173" as="targetPoint" />
          </mxGeometry>
        </mxCell>
        <mxCell id="xably6CQ3NCbpZJSgY0N-18" style="edgeStyle=none;curved=1;rounded=0;orthogonalLoop=1;jettySize=auto;html=1;fontSize=12;startSize=8;endSize=8;" edge="1" parent="xably6CQ3NCbpZJSgY0N-1" source="xably6CQ3NCbpZJSgY0N-12" target="xably6CQ3NCbpZJSgY0N-16">
          <mxGeometry relative="1" as="geometry" />
        </mxCell>
        <mxCell id="xably6CQ3NCbpZJSgY0N-12" value="" style="rhombus;whiteSpace=wrap;html=1;" vertex="1" parent="xably6CQ3NCbpZJSgY0N-1">
          <mxGeometry x="171.5" y="342" width="45" height="45" as="geometry" />
        </mxCell>
        <mxCell id="xably6CQ3NCbpZJSgY0N-16" value="No Hourly Rate Is applied" style="html=1;align=center;verticalAlign=top;rounded=1;absoluteArcSize=1;arcSize=10;dashed=0;whiteSpace=wrap;" vertex="1" parent="xably6CQ3NCbpZJSgY0N-1">
          <mxGeometry x="17" y="423" width="140" height="40" as="geometry" />
        </mxCell>
        <mxCell id="xably6CQ3NCbpZJSgY0N-17" value="Hourly Rate Is Applied To Bid" style="html=1;align=center;verticalAlign=top;rounded=1;absoluteArcSize=1;arcSize=10;dashed=0;whiteSpace=wrap;" vertex="1" parent="xably6CQ3NCbpZJSgY0N-1">
          <mxGeometry x="211" y="423" width="140" height="40" as="geometry" />
        </mxCell>
        <mxCell id="xably6CQ3NCbpZJSgY0N-19" style="edgeStyle=none;curved=1;rounded=0;orthogonalLoop=1;jettySize=auto;html=1;entryX=0.36;entryY=-0.035;entryDx=0;entryDy=0;entryPerimeter=0;fontSize=12;startSize=8;endSize=8;" edge="1" parent="xably6CQ3NCbpZJSgY0N-1" source="xably6CQ3NCbpZJSgY0N-12" target="xably6CQ3NCbpZJSgY0N-17">
          <mxGeometry relative="1" as="geometry" />
        </mxCell>
        <mxCell id="xably6CQ3NCbpZJSgY0N-10" style="edgeStyle=none;curved=1;rounded=0;orthogonalLoop=1;jettySize=auto;html=1;entryX=0;entryY=0.5;entryDx=0;entryDy=0;fontSize=12;startSize=8;endSize=8;" edge="1" parent="1" source="xably6CQ3NCbpZJSgY0N-11" target="xably6CQ3NCbpZJSgY0N-3">
          <mxGeometry relative="1" as="geometry" />
        </mxCell>
        <mxCell id="xably6CQ3NCbpZJSgY0N-11" value="" style="ellipse;fillColor=strokeColor;html=1;" vertex="1" parent="1">
          <mxGeometry x="-315" y="-71" width="19" height="19" as="geometry" />
        </mxCell>
        <mxCell id="xably6CQ3NCbpZJSgY0N-20" value="" style="ellipse;html=1;shape=endState;fillColor=strokeColor;" vertex="1" parent="1">
          <mxGeometry x="-83" y="444" width="30" height="30" as="geometry" />
        </mxCell>
        <mxCell id="xably6CQ3NCbpZJSgY0N-21" value="" style="ellipse;html=1;shape=endState;fillColor=strokeColor;" vertex="1" parent="1">
          <mxGeometry x="129" y="441" width="30" height="30" as="geometry" />
        </mxCell>
        <mxCell id="xably6CQ3NCbpZJSgY0N-22" style="edgeStyle=none;curved=1;rounded=0;orthogonalLoop=1;jettySize=auto;html=1;entryX=0.5;entryY=0;entryDx=0;entryDy=0;fontSize=12;startSize=8;endSize=8;" edge="1" parent="1" source="xably6CQ3NCbpZJSgY0N-16" target="xably6CQ3NCbpZJSgY0N-20">
          <mxGeometry relative="1" as="geometry" />
        </mxCell>
        <mxCell id="xably6CQ3NCbpZJSgY0N-23" style="edgeStyle=none;curved=1;rounded=0;orthogonalLoop=1;jettySize=auto;html=1;entryX=0.5;entryY=0;entryDx=0;entryDy=0;fontSize=12;startSize=8;endSize=8;" edge="1" parent="1" source="xably6CQ3NCbpZJSgY0N-17" target="xably6CQ3NCbpZJSgY0N-21">
          <mxGeometry relative="1" as="geometry" />
        </mxCell>
      </root>
    </mxGraphModel>
  </diagram>
</mxfile>
